<?xml version="1.0" standalone="no"?>
<!DOCTYPE svg PUBLIC "-//W3C//DTD SVG 20010904//EN"
 "http://www.w3.org/TR/2001/REC-SVG-20010904/DTD/svg10.dtd">
<svg version="1.0" xmlns="http://www.w3.org/2000/svg"
 width="502.000000pt" height="195.000000pt" viewBox="0 0 502.000000 195.000000"
 preserveAspectRatio="xMidYMid meet">
<metadata>
Created by potrace 1.16, written by Peter Selinger 2001-2019
</metadata>
<g transform="translate(0.000000,195.000000) scale(0.100000,-0.100000)"
fill="#000000" stroke="none">
<path d="M592 1258 c-22 -29 -194 -449 -188 -464 4 -12 19 -14 63 -12 l58 3
47 110 c26 61 55 128 63 150 14 33 18 37 26 23 17 -30 139 -328 139 -338 0 -7
-41 -9 -117 -7 -65 3 -165 2 -223 -2 l-104 -6 -18 -47 c-14 -38 -15 -48 -4
-57 9 -8 111 -10 327 -9 293 3 314 4 317 21 5 25 -256 634 -274 641 -28 11
-101 6 -112 -6z"/>
<path d="M1102 1258 c-18 -18 -15 -105 4 -112 27 -10 110 -6 122 6 7 7 12 30
12 53 0 23 -5 46 -12 53 -16 16 -110 16 -126 0z"/>
<path d="M1312 1258 c-17 -17 -17 -639 0 -656 16 -16 90 -16 106 0 9 9 12 84
12 275 l0 262 103 3 102 3 3 54 c2 37 -1 57 -10 62 -21 14 -302 11 -316 -3z"/>
<path d="M1831 1261 c-8 -5 -12 -18 -9 -28 10 -37 300 -413 318 -413 18 0 53
39 139 153 24 31 47 57 52 57 5 0 10 -96 11 -212 l3 -213 55 0 55 0 3 324 c2
253 -1 326 -10 333 -20 12 -92 9 -110 -4 -8 -7 -54 -66 -102 -130 -47 -65 -90
-118 -95 -118 -5 0 -48 53 -96 118 -48 64 -95 123 -103 130 -18 14 -90 16
-111 3z"/>
<path d="M2904 1262 c-18 -11 -203 -452 -197 -468 4 -11 20 -14 65 -12 l60 3
61 148 c33 81 64 144 69 139 13 -13 146 -337 141 -345 -3 -4 -99 -7 -214 -7
-135 1 -215 -2 -223 -9 -17 -15 -40 -86 -32 -100 5 -8 104 -11 326 -11 278 0
319 2 324 16 5 14 -228 583 -260 632 -12 18 -24 22 -62 22 -26 0 -52 -4 -58
-8z"/>
<path d="M3934 1262 c-16 -10 -25 -30 -120 -253 -46 -111 -83 -208 -80 -216 4
-9 24 -13 64 -13 l59 0 57 138 c71 172 72 174 84 142 6 -14 37 -90 71 -169 34
-79 61 -149 61 -155 0 -8 -60 -10 -204 -9 -113 2 -211 0 -219 -3 -19 -7 -50
-76 -45 -100 3 -18 19 -19 317 -22 216 -1 318 1 327 9 9 8 10 17 3 36 -31 82
-253 600 -261 611 -11 13 -96 17 -114 4z"/>
<path d="M4492 1258 c-8 -8 -12 -47 -12 -109 0 -107 1 -109 69 -109 54 0 61
12 61 108 0 107 -8 122 -63 122 -24 0 -48 -5 -55 -12z"/>
<path d="M4491 986 c-8 -9 -11 -70 -9 -197 l3 -184 54 -3 c37 -2 57 1 62 10
13 19 11 346 -1 369 -13 23 -91 27 -109 5z"/>
<path d="M1825 819 c-10 -16 -8 -200 3 -211 5 -5 31 -8 58 -6 l49 3 3 99 c2
64 -1 103 -9 112 -13 16 -95 19 -104 3z"/>
</g>
</svg>
